<svg xmlns="http://www.w3.org/2000/svg" width="200" height="200" viewBox="0 0 200 200">
  <g transform="translate(100,100)">
    <g transform="scale(0.90)">
      <path d="M0,-110 C18,-85 34,-68 50,-40 C28,-20 10,10 6,40 C-6,36 -28,20 -50,12 C-34,-18 -18,-45 0,-110Z"
            fill="#00f2e6" transform="rotate(0)"/>
      <path d="M0,-110 C18,-85 34,-68 50,-40 C28,-20 10,10 6,40 C-6,36 -28,20 -50,12 C-34,-18 -18,-45 0,-110Z"
            fill="#00b9f1" transform="rotate(45)"/>
      <path d="M0,-110 C18,-85 34,-68 50,-40 C28,-20 10,10 6,40 C-6,36 -28,20 -50,12 C-34,-18 -18,-45 0,-110Z"
            fill="#d63aff" transform="rotate(90)"/>
      <path d="M0,-110 C18,-85 34,-68 50,-40 C28,-20 10,10 6,40 C-6,36 -28,20 -50,12 C-34,-18 -18,-45 0,-110Z"
            fill="#fb015b" transform="rotate(135)"/>
      <path d="M0,-110 C18,-85 34,-68 50,-40 C28,-20 10,10 6,40 C-6,36 -28,20 -50,12 C-34,-18 -18,-45 0,-110Z"
            fill="#00f2e6" transform="rotate(180)"/>
      <path d="M0,-110 C18,-85 34,-68 50,-40 C28,-20 10,10 6,40 C-6,36 -28,20 -50,12 C-34,-18 -18,-45 0,-110Z"
            fill="#00b9f1" transform="rotate(225)"/>
      <path d="M0,-110 C18,-85 34,-68 50,-40 C28,-20 10,10 6,40 C-6,36 -28,20 -50,12 C-34,-18 -18,-45 0,-110Z"
            fill="#d63aff" transform="rotate(270)"/>
      <path d="M0,-110 C18,-85 34,-68 50,-40 C28,-20 10,10 6,40 C-6,36 -28,20 -50,12 C-34,-18 -18,-45 0,-110Z"
            fill="#fb015b" transform="rotate(315)"/>
    </g>
    <circle r="24.5" fill="rgba(255,255,255,0.04)"/>
    <g>
      <circle cx="0" cy="-8" r="7" fill="#fff"/>
      <rect x="-3" y="-2" width="6" height="18" rx="1.5" fill="#fff"/>
      <rect x="3" y="4.5" width="4" height="3" rx="0.75" fill="#fff"/>
    </g>
    <g opacity="0.9">
      <circle cx="-17" cy="-2" r="1.5" fill="#fff" opacity="0.12"/>
      <circle cx="17" cy="-2" r="1.5" fill="#fff" opacity="0.12"/>
      <circle cx="0" cy="18.5" r="1.5" fill="#fff" opacity="0.12"/>
    </g>
  </g>
</svg>
